<svg width="14" height="14" viewBox="0 0 14 14" fill="none" xmlns="http://www.w3.org/2000/svg">
<path d="M11.2383 11.0156C11.0742 11.1797 10.7734 11.1797 10.6094 11.0156L7 7.37891L3.36328 11.0156C3.19922 11.1797 2.89844 11.1797 2.73438 11.0156C2.57031 10.8516 2.57031 10.5508 2.73438 10.3867L6.37109 6.75L2.73438 3.14062C2.57031 2.97656 2.57031 2.67578 2.73438 2.51172C2.89844 2.34766 3.19922 2.34766 3.36328 2.51172L7 6.14844L10.6094 2.51172C10.7734 2.34766 11.0742 2.34766 11.2383 2.51172C11.4023 2.67578 11.4023 2.97656 11.2383 3.14062L7.60156 6.75L11.2383 10.3867C11.4023 10.5508 11.4023 10.8516 11.2383 11.0156Z" fill="white"/>
</svg>
