<svg width="23" height="27" viewBox="0 0 23 27" fill="none" xmlns="http://www.w3.org/2000/svg">
<path fill-rule="evenodd" clip-rule="evenodd" d="M0 11.363C0 4.94713 5.3798 -0.227198 11.9279 0.00769321C18.0074 0.222451 23 5.20887 23 11.2221C23 20.2889 12.0978 25.8928 8.51802 26.9867C8.28027 27.0605 8.08328 26.8122 8.17838 26.6176C8.21235 26.5505 8.2531 26.4632 8.2531 26.4632L9.96486 22.9801C10.0396 22.8123 9.93769 22.6244 9.75428 22.5976C4.23184 21.7654 0 17.0541 0 11.363ZM15.9294 6.24242C15.8883 6.2366 15.8413 6.23077 15.8002 6.23077H11.186C10.9981 6.23077 10.8572 6.30645 10.775 6.45199L10.734 6.51603L9.11369 9.34529L8.62057 10.2069C8.59122 10.2535 8.57361 10.3058 8.57948 10.3641C8.60296 10.4747 8.70276 10.5445 8.83778 10.5445H8.92584H9.64791H9.90034C10.1058 10.5504 10.2115 10.7075 10.1234 10.8647C10.1117 10.8822 10.0941 10.9113 10.0941 10.9113L8.47381 13.6067C8.47381 13.6067 8.43859 13.6649 8.42684 13.694C8.36814 13.8279 8.4562 13.9618 8.6147 13.9851C8.64992 13.9909 8.69102 13.9909 8.72624 13.9909H9.63617H9.71249C9.90621 14.0142 9.99427 14.1655 9.90621 14.3402L9.87099 14.4159L8.56774 17.0821C8.56774 17.0821 8.53838 17.1403 8.52664 17.1694C8.5149 17.216 8.53251 17.2626 8.57361 17.2859C8.62057 17.315 8.67928 17.315 8.72624 17.2859C8.75559 17.2684 8.8143 17.216 8.8143 17.216L13.5518 13.6707C13.5518 13.6707 13.5929 13.6416 13.6105 13.6241C13.681 13.5717 13.7103 13.4728 13.6692 13.3913C13.6222 13.3039 13.5283 13.2515 13.4285 13.2574H12.6888C12.501 13.2457 12.4012 13.0885 12.4892 12.9488C12.5049 12.9255 12.5205 12.9074 12.5362 12.8893C12.544 12.8803 12.5519 12.8712 12.5597 12.8615L14.6085 10.5736C14.6085 10.5736 14.6613 10.5096 14.6848 10.4805C14.7846 10.3408 14.6907 10.172 14.5028 10.1545H14.4148H13.4579H13.3698C13.1761 10.1487 13.0763 9.97402 13.1761 9.8343C13.1937 9.8052 13.2465 9.7528 13.2465 9.7528L16.0233 6.62082C16.0468 6.59753 16.0644 6.57424 16.082 6.55096C16.1642 6.42871 16.0937 6.27735 15.9294 6.24242Z" fill="white"/>
</svg>
