<svg width="14" height="15" viewBox="0 0 14 15" fill="none" xmlns="http://www.w3.org/2000/svg">
<path d="M8.85938 3.59375C8.77734 3.53906 8.75 3.45703 8.75 3.375C8.75 3.29297 8.77734 3.23828 8.85938 3.18359L10.5 2.5L11.1562 0.886719C11.2109 0.804688 11.293 0.75 11.375 0.75C11.457 0.75 11.5117 0.804688 11.5664 0.886719L12.25 2.5L13.8633 3.18359C13.9453 3.23828 14 3.29297 14 3.375C14 3.45703 13.9453 3.53906 13.8633 3.59375L12.25 4.25L11.5664 5.89062C11.5117 5.97266 11.457 6 11.375 6C11.293 6 11.2109 5.97266 11.1562 5.89062L10.5 4.25L8.85938 3.59375ZM13.8633 11.9336C13.9453 11.9883 14 12.043 14 12.125C14 12.207 13.9453 12.2891 13.8633 12.3438L12.25 13L11.5664 14.6406C11.5117 14.7227 11.457 14.75 11.375 14.75C11.293 14.75 11.2109 14.7227 11.1562 14.6406L10.5 13L8.85938 12.3438C8.77734 12.2891 8.75 12.207 8.75 12.125C8.75 12.043 8.77734 11.9883 8.85938 11.9336L10.5 11.25L11.1562 9.63672C11.2109 9.55469 11.293 9.5 11.375 9.5C11.457 9.5 11.5117 9.55469 11.5664 9.63672L12.25 11.25L13.8633 11.9336ZM10.5 7.75C10.5 7.91406 10.3906 8.07812 10.2539 8.13281L7.16406 9.69141L5.63281 12.7812C5.55078 12.918 5.38672 13 5.25 13C5.05859 13 4.92188 12.918 4.83984 12.7812L3.30859 9.69141L0.21875 8.13281C0.0820312 8.07812 0 7.91406 0 7.75C0 7.58594 0.0820312 7.42188 0.21875 7.36719L3.30859 5.80859L4.83984 2.74609C5.00391 2.44531 5.46875 2.44531 5.63281 2.74609L7.16406 5.80859L10.2539 7.36719C10.3906 7.42188 10.5 7.58594 10.5 7.75Z" fill="white"/>
</svg>
